<?xml version="1.0" encoding="UTF-8" standalone="no"?>
<svg
   viewBox="0 0 28 28"
   focusable="false"
   version="1.1"
   id="svg8"
   sodipodi:docname="gatsby.svg"
   inkscape:version="1.1.2 (0a00cf5339, 2022-02-04, custom)"
   xmlns:inkscape="http://www.inkscape.org/namespaces/inkscape"
   xmlns:sodipodi="http://sodipodi.sourceforge.net/DTD/sodipodi-0.dtd"
   xmlns="http://www.w3.org/2000/svg"
   xmlns:svg="http://www.w3.org/2000/svg">
  <defs
     id="defs12" />
  <sodipodi:namedview
     id="namedview10"
     pagecolor="#505050"
     bordercolor="#eeeeee"
     borderopacity="1"
     inkscape:pageshadow="0"
     inkscape:pageopacity="0"
     inkscape:pagecheckerboard="0"
     showgrid="false"
     inkscape:zoom="25.678571"
     inkscape:cx="14.369959"
     inkscape:cy="14.506259"
     inkscape:window-width="1920"
     inkscape:window-height="1064"
     inkscape:window-x="0"
     inkscape:window-y="16"
     inkscape:window-maximized="1"
     inkscape:current-layer="svg8" />
  <title
     id="title2">
    Gatsby
  </title>
  <path
     id="circle4"
     style="fill:#282828;fill-opacity:1"
     d="M 14 0 A 14 14 0 0 0 0 14 A 14 14 0 0 0 14 28 A 14 14 0 0 0 28 14 A 14 14 0 0 0 14 0 z M 14 3 C 17.7 3 20.900391 4.8 22.900391 7.5 L 21.400391 8.8007812 C 19.700391 6.5007812 17 5 14 5 C 10.1 5 6.8 7.5 5.5 11 L 17 22.5 C 19.9 21.5 22.100781 19 22.800781 16 L 18 16 L 18 14 L 25 14 C 25 19.2 21.300391 23.599219 16.400391 24.699219 L 3.3007812 11.599609 C 4.4007813 6.6996094 8.8 3 14 3 z M 3 14.199219 L 13.900391 25 C 11.100391 24.9 8.2992188 23.900781 6.1992188 21.800781 C 4.0992187 19.700781 3 16.899219 3 14.199219 z " />
</svg>
