<?xml version="1.0" encoding="UTF-8" standalone="no"?>
<!-- Created with Inkscape (http://www.inkscape.org/) -->

<svg
   version="1.1"
   id="svg1190"
   width="406"
   height="406"
   viewBox="0 0 406 406"
   sodipodi:docname="ai.png.svg"
   inkscape:version="1.1.2 (0a00cf5339, 2022-02-04, custom)"
   xmlns:inkscape="http://www.inkscape.org/namespaces/inkscape"
   xmlns:sodipodi="http://sodipodi.sourceforge.net/DTD/sodipodi-0.dtd"
   xmlns="http://www.w3.org/2000/svg"
   xmlns:svg="http://www.w3.org/2000/svg">
  <defs
     id="defs1194" />
  <sodipodi:namedview
     id="namedview1192"
     pagecolor="#505050"
     bordercolor="#eeeeee"
     borderopacity="1"
     inkscape:pageshadow="0"
     inkscape:pageopacity="0"
     inkscape:pagecheckerboard="0"
     showgrid="false"
     inkscape:zoom="1.8349754"
     inkscape:cx="202.72752"
     inkscape:cy="72.208054"
     inkscape:window-width="1920"
     inkscape:window-height="1064"
     inkscape:window-x="0"
     inkscape:window-y="16"
     inkscape:window-maximized="1"
     inkscape:current-layer="g1196" />
  <g
     inkscape:groupmode="layer"
     inkscape:label="Image"
     id="g1196">
    <path
       style="fill:#282828;fill-opacity:1"
       d="M 15.049684,403.74489 C 9.414586,401.01564 3.497846,394.95858 1.807213,390.18837 0.749178,387.20307 0.5,351.7123 0.5,204 0.5,103.625 0.848309,19.863576 1.27402,17.863502 2.255695,13.251402 8.674864,5.9116217 14.645108,2.5747885 L 19.251906,0 H 203.40724 387.56258 l 5.57293,3.4858922 c 3.06511,1.9172407 6.85004,5.3287496 8.41094,7.5811308 2.5092,3.620782 2.92426,5.331287 3.58252,14.764108 0.97144,13.920437 0.97144,340.417299 0,354.337739 -0.65826,9.43282 -1.07332,11.14332 -3.58252,14.76411 -1.5609,2.25238 -5.34583,5.66389 -8.41094,7.58113 L 387.56258,406 203.53129,405.95016 19.5,405.90031 Z M 128.08049,285.1216 l 7.31866,-25.87841 5.94712,-0.62159 C 144.61718,258.27972 158.01003,258 171.10815,258 h 23.81476 l 1.03971,3.75 c 0.57184,2.0625 4.11586,13.875 7.87561,26.25 l 6.8359,22.5 h 24.58091 c 13.51949,0 24.80577,-0.22545 25.0806,-0.501 0.27483,-0.27555 -13.80881,-46.62555 -31.29699,-103 L 197.24197,104.5 h -30.77035 -30.77036 l -1.40694,4 c -0.77382,2.2 -5.39005,17.05 -10.25828,33 -4.86823,15.95 -17.25077,56.45 -27.51675,90 -24.60906,80.42423 -23.832574,77.68377 -22.288734,78.66365 0.698194,0.44315 11.453354,0.81262 23.900354,0.82104 L 120.76183,311 Z m 16.03831,-63.02701 c -1.13383,-0.71812 -0.56989,-3.7152 3.14885,-16.73469 2.49152,-8.72295 7.31426,-26.8849 10.71719,-40.3599 3.40294,-13.475 6.31209,-24.62613 6.46479,-24.78029 0.15269,-0.15417 1.73528,5.24583 3.51685,12 1.78158,6.75416 6.79295,24.77393 11.13638,40.04394 4.34343,15.27001 7.89714,28.43251 7.89714,29.25 0,1.26787 -3.05006,1.4841 -20.75,1.47104 -11.4125,-0.008 -21.37154,-0.40897 -22.1312,-0.8901 z M 331.5,235.5 v -75 l -21,-0.28298 c -11.55,-0.15564 -22.0125,-0.0346 -23.25,0.26905 L 285,161.0381 v 72.41585 c 0,44.99924 0.37199,73.39426 0.98254,75.00013 l 0.98254,2.58428 22.26746,-0.26918 L 331.5,310.5 Z m -10.90355,-95.8096 c 4.11572,-2.15423 9.03662,-7.55367 10.85287,-11.90828 2.35735,-5.65193 2.00002,-13.96252 -0.84123,-19.56536 -2.90343,-5.72544 -4.83747,-7.55673 -10.64463,-10.079109 -13.4061,-5.82304 -27.05282,-1.602895 -33.20263,10.267669 -2.90237,5.60225 -2.87271,15.4949 0.0637,21.25079 2.41099,4.72593 8.25008,9.95328 12.67544,11.34748 4.23286,1.33356 17.63343,0.49941 21.09645,-1.31319 z"
       id="path1257" />
  </g>
</svg>
