<?xml version="1.0" encoding="UTF-8" standalone="no"?>
<!-- Created with Inkscape (http://www.inkscape.org/) -->

<svg
   width="210mm"
   height="297mm"
   viewBox="0 0 210 297"
   version="1.1"
   id="svg5"
   xml:space="preserve"
   inkscape:version="1.2.1 (9c6d41e410, 2022-07-14, custom)"
   sodipodi:docname="dotnet.svg"
   xmlns:inkscape="http://www.inkscape.org/namespaces/inkscape"
   xmlns:sodipodi="http://sodipodi.sourceforge.net/DTD/sodipodi-0.dtd"
   xmlns="http://www.w3.org/2000/svg"
   xmlns:svg="http://www.w3.org/2000/svg"><sodipodi:namedview
     id="namedview7"
     pagecolor="#505050"
     bordercolor="#eeeeee"
     borderopacity="1"
     inkscape:showpageshadow="0"
     inkscape:pageopacity="0"
     inkscape:pagecheckerboard="0"
     inkscape:deskcolor="#505050"
     inkscape:document-units="mm"
     showgrid="false"
     inkscape:zoom="1.5912092"
     inkscape:cx="471.65389"
     inkscape:cy="551.78163"
     inkscape:window-width="1920"
     inkscape:window-height="1059"
     inkscape:window-x="0"
     inkscape:window-y="21"
     inkscape:window-maximized="1"
     inkscape:current-layer="layer1" /><defs
     id="defs2" /><g
     inkscape:label="Layer 1"
     inkscape:groupmode="layer"
     id="layer1"><path
       style="fill:#000000;stroke-width:0.264583"
       d="m 89.165053,175.30347 c -8.26282,-1.36928 -15.02558,-4.90907 -20.67197,-10.82021 -4.75378,-4.97667 -7.75346,-10.77288 -9.27244,-17.91692 -0.66547,-3.12981 -0.66688,-10.10091 -0.003,-13.19602 1.6595,-7.73297 4.59884,-13.21759 9.95313,-18.57188 5.35428,-5.35429 10.83891,-8.29363 18.57187,-9.95313 3.08975,-0.66306 10.07314,-0.66306 13.162887,0 7.73394,1.65971 13.23192,4.60416 18.57638,9.94863 5.34447,5.34446 8.28892,10.84243 9.94862,18.57638 0.66307,3.08975 0.66307,10.07314 0,13.16289 -1.66168,7.74316 -4.61311,13.25352 -9.94594,18.56919 -5.31168,5.29459 -10.78026,8.25384 -18.2864,9.89543 -2.694037,0.58919 -9.308597,0.75719 -12.033477,0.30564 z m -2.05052,-15.67472 c 0.36453,-0.0977 0.59531,-0.36369 0.59531,-0.68615 0,-0.39491 -0.1158,-0.48082 -0.46302,-0.34351 -3.58249,1.41676 -6.45852,-1.66289 -4.88177,-5.2274 0.78877,-1.78315 2.26587,-2.41765 4.4849,-1.92653 0.74272,0.16438 0.85989,0.11955 0.85989,-0.32902 0,-0.5811 -0.65667,-0.83642 -2.16558,-0.84202 -1.27546,-0.005 -2.28791,0.394 -3.22481,1.27 -2.17359,2.03228 -1.94866,6.16912 0.41782,7.68442 0.87947,0.56314 3.03417,0.76014 4.37726,0.40021 z m 6.92277,-0.21846 c 1.99053,-1.02934 2.13108,-4.74927 0.22977,-6.08101 -0.88544,-0.62019 -2.89132,-0.53483 -3.77548,0.16066 -0.81794,0.64339 -1.45883,1.96834 -1.45883,3.01594 0,1.03459 0.76936,2.46437 1.55614,2.89194 0.90405,0.4913 2.51122,0.49711 3.4484,0.0125 z m -3.10227,-1.01656 c -1.67897,-1.78718 -0.25193,-5.18178 1.90299,-4.52679 1.81414,0.55142 2.36046,3.20243 0.95051,4.61239 -0.7283,0.7283 -2.12833,0.6863 -2.8535,-0.0856 z m 7.62273,-0.9206 c 0,-2.70793 0.36211,-3.49845 1.602497,-3.49845 0.8423,0 0.85759,-0.0159 0.61815,-0.63982 -0.21736,-0.56642 -0.68949,-0.52618 -1.523507,0.12986 -0.5779,0.45457 -0.69714,0.4772 -0.69714,0.13229 0,-0.26743 -0.23632,-0.41608 -0.66146,-0.41608 h -0.66146 v 3.30729 3.30729 h 0.66146 c 0.65532,0 0.66146,-0.0216 0.66146,-2.32238 z m 8.050887,1.90661 c 0.55863,-0.55863 0.53117,-1.01028 -0.0472,-0.77709 -0.25467,0.10267 -0.91424,0.25078 -1.46572,0.32914 -0.8051,0.11439 -1.13098,0.022 -1.65365,-0.46907 -0.35802,-0.33634 -0.65095,-0.88844 -0.65095,-1.22687 0,-0.59902 0.0639,-0.61534 2.40956,-0.61534 2.0885,0 2.38816,-0.0558 2.24896,-0.41851 -0.0883,-0.23019 -0.1606,-0.7156 -0.1606,-1.07869 0,-1.07001 -1.34211,-2.20696 -2.60518,-2.20696 -2.84467,0 -4.26172,4.02172 -2.15822,6.12522 0.64628,0.64628 0.96196,0.75394 2.21061,0.75394 0.97146,0 1.59515,-0.13849 1.87243,-0.41577 z m -3.67939,-4.35809 c 0.5891,-1.1392 1.61992,-1.48447 2.49318,-0.83508 0.37177,0.27646 0.71399,0.7586 0.76049,1.07143 0.0798,0.53646 -0.022,0.56876 -1.79273,0.56876 h -1.87728 z m -35.017847,-9.68694 c 0.67583,-0.61162 0.62184,-1.81671 -0.10419,-2.32524 -0.80748,-0.56558 -1.4107,-0.51632 -2.04748,0.16718 -0.68174,0.73175 -0.68503,1.39206 -0.0103,2.06678 0.64341,0.64341 1.51138,0.68006 2.16197,0.0913 z m 7.16092,-8.30247 0.0698,-8.47577 5.42395,8.46903 5.42396,8.46903 1.52136,0.007 1.52135,0.007 v -10.18645 -10.18646 h -1.19062 -1.19063 l -0.007,8.53281 -0.007,8.53281 -0.90358,-1.45521 c -0.49696,-0.80036 -2.92341,-4.61036 -5.3921,-8.46666 l -4.48851,-7.01147 -1.61227,-0.0788 -1.61228,-0.0788 v 10.19909 10.19908 h 1.18697 1.18695 z m 30.100007,7.26035 v -1.21542 l -2.18281,0.0835 c -1.20055,0.0459 -3.105547,0.0571 -4.233327,0.0248 l -2.05052,-0.0587 v -3.43959 -3.43959 h 3.704157 3.70417 v -1.05833 -1.05833 h -3.70417 -3.704157 v -3.30729 -3.3073 h 3.968747 3.96875 v -1.19062 -1.19063 h -5.159377 -5.15937 v 10.18646 10.18646 h 5.42395 5.423957 z m 10.05417,-7.9127 v -9.12813 h 2.91042 2.91041 v -1.05833 -1.05834 h -7.01146 -7.01145 v 1.05834 1.05833 h 2.91041 2.91042 v 9.12813 9.12812 h 1.19062 1.19063 z"
       id="path243" /></g></svg>
