<?xml version="1.0" encoding="UTF-8" standalone="no"?>
<!-- Created with Inkscape (http://www.inkscape.org/) -->

<svg
   version="1.1"
   id="svg2"
   width="512"
   height="512"
   viewBox="0 0 512 512"
   xmlns="http://www.w3.org/2000/svg"
   xmlns:svg="http://www.w3.org/2000/svg">
  <defs
     id="defs6" />
  <g
     id="g8">
    <path
       style="fill:#282828;stroke:none;fill-opacity:1"
       d="M 43,0.439056 C -7.84563,8.38019 0,62.9043 0,101 v 279 66 c 0,15.979 -0.636023,31.298 9.04321,45 C 24.0748,512.28 46.6609,512 70,512 h 54 233 75 c 12.624,0 26.59,1.659 39,-0.808 49.333,-9.805 41,-63.364 41,-101.192 V 129 66 C 512,49.1299 512.516,33.0211 501.482,19 486.336,-0.246643 465.224,0 443,0 H 385 156 82 C 69.3219,0 55.535,-1.51868 43,0.439056 M 460,293 c -20.501,-9.583 -38.828,-17.065 -62,-15 -10.478,0.934 -23.676,5.343 -27.991,16 -6.966,17.206 15.828,28.474 27.991,34.219 31.287,14.779 69.983,28.868 70.985,69.781 0.202,8.212 -0.418,16.019 -2.463,24 -11.083,43.25 -57.382,47 -94.522,47 -13.359,0 -27.2,-1.968 -40,-5.885 -4.034,-1.234 -10.474,-2.529 -13.397,-5.764 C 315.661,454.094 317,447.055 317,443 c 0,-11.835 1.166,-24.335 -1,-36 19.03,17.061 47.48,26.499 73,22.245 C 402.707,426.961 419.795,417.703 414.146,401 407.969,382.738 381.549,375.83 366,368.691 331.619,352.907 303.133,319.784 319.876,280 336.752,239.9 380.854,237.971 418,238 c 10.282,0.008 21.093,1.633 31,4.428 2.969,0.838 8.008,1.656 9.972,4.274 2.288,3.05 1.028,9.693 1.028,13.298 v 33 M 297,243 v 41 H 233 V 467 H 182 V 284 h -64 v -41 z"
       id="path32" />
    <path
       style="fill:#000000"
       id="path12"
       d="" />
  </g>
</svg>
